<svg xmlns="http://www.w3.org/2000/svg" viewBox="0 0 500 70">
  <g>
    <path d="M37,23.7c-3.7-2.1-7.9-3.2-12.6-3.2c-4.2,0-8,0.9-11.3,2.7c-3.4,1.8-6,4.2-7.8,7.3V3.1c0-0.8-0.2-1.5-0.7-1.9
      C4.1,0.8,3.4,0.5,2.6,0.5c-0.8,0-1.4,0.2-1.9,0.7C0.2,1.7,0,2.3,0,3.1v42.3c0.1,4.6,1.2,8.6,3.4,12.3c2.1,3.6,5,6.5,8.7,8.6
      c3.7,2.1,7.8,3.2,12.4,3.2c4.7,0,8.9-1.1,12.6-3.2c3.7-2.1,6.6-5.1,8.8-8.8c2.1-3.7,3.2-7.9,3.2-12.6c0-4.7-1.1-8.9-3.2-12.5
      C43.7,28.7,40.7,25.8,37,23.7z M41.2,55c-1.7,3-4,5.3-6.9,7c-2.9,1.7-6.2,2.6-9.9,2.6c-3.6,0-6.9-0.9-9.8-2.6
      c-2.9-1.7-5.2-4.1-6.9-7c-1.7-2.9-2.5-6.3-2.5-10c0-3.7,0.8-7.1,2.5-10c1.7-2.9,4-5.2,6.9-7c2.9-1.7,6.2-2.6,9.8-2.6
      c3.7,0,7,0.9,9.9,2.6c2.9,1.7,5.2,4,6.9,7c1.7,2.9,2.5,6.3,2.5,10C43.7,48.7,42.9,52,41.2,55z" fill="#fff"/>
    <path d="M96.6,23.7c-3.7-2.1-7.9-3.2-12.5-3.2c-4.7,0-8.9,1.1-12.6,3.2c-3.7,2.1-6.6,5.1-8.8,8.8c-2.1,3.7-3.2,7.9-3.2,12.6
      c0,4.6,1.1,8.8,3.2,12.5c2.1,3.7,5.1,6.6,8.8,8.8c3.7,2.1,7.9,3.2,12.6,3.2c4.7,0,8.9-1.1,12.5-3.2c3.7-2.1,6.6-5.1,8.7-8.8
      c2.1-3.7,3.2-7.9,3.2-12.5c0-4.7-1.1-8.9-3.2-12.6C103.2,28.7,100.2,25.8,96.6,23.7z M100.7,55c-1.7,3-3.9,5.3-6.8,7
      c-2.9,1.7-6.2,2.6-9.9,2.6c-3.6,0-6.9-0.9-9.8-2.6c-2.9-1.7-5.2-4.1-6.9-7c-1.7-2.9-2.5-6.3-2.5-9.9c0-3.7,0.8-7.1,2.5-10
      c1.7-2.9,4-5.3,6.9-7c2.9-1.7,6.2-2.6,9.8-2.6c3.7,0,7,0.9,9.9,2.6c2.9,1.7,5.2,4.1,6.8,7c1.7,3,2.5,6.3,2.5,9.9
      C103.2,48.7,102.4,52,100.7,55z" fill="#fff"/>
    <path d="M156.1,23.7c-3.7-2.1-7.9-3.2-12.5-3.2c-4.7,0-8.9,1.1-12.6,3.2c-3.7,2.1-6.6,5.1-8.8,8.8c-2.1,3.7-3.2,7.9-3.2,12.6
      c0,4.6,1.1,8.8,3.2,12.5c2.1,3.7,5.1,6.6,8.8,8.8c3.7,2.1,7.9,3.2,12.6,3.2c4.7,0,8.9-1.1,12.5-3.2c3.7-2.1,6.6-5.1,8.7-8.8
      c2.1-3.7,3.2-7.9,3.2-12.5c0-4.7-1.1-8.9-3.2-12.6C162.7,28.7,159.7,25.8,156.1,23.7z M160.2,55c-1.7,3-3.9,5.3-6.8,7
      c-2.9,1.7-6.2,2.6-9.9,2.6c-3.6,0-6.9-0.9-9.8-2.6c-2.9-1.7-5.2-4.1-6.9-7c-1.7-2.9-2.5-6.3-2.5-9.9c0-3.7,0.8-7.1,2.5-10
      c1.7-2.9,4-5.3,6.9-7c2.9-1.7,6.2-2.6,9.8-2.6c3.7,0,7,0.9,9.9,2.6c2.9,1.7,5.2,4.1,6.8,7c1.7,3,2.5,6.3,2.5,9.9
      C162.7,48.7,161.9,52,160.2,55z" fill="#fff"/>
    <path d="M198.2,41.7l18.6-16.9c0.6-0.5,0.9-1,0.9-1.6c0-0.6-0.3-1.2-0.8-1.8c-0.5-0.6-1.1-0.9-1.6-0.9c-0.6,0-1.1,0.2-1.7,0.7
      L186.4,46V3.1c0-0.8-0.2-1.5-0.7-1.9c-0.5-0.5-1.1-0.7-1.9-0.7c-0.8,0-1.4,0.2-1.9,0.7c-0.5,0.5-0.7,1.1-0.7,1.9v63.2
      c0,0.8,0.2,1.4,0.7,1.9c0.5,0.5,1.1,0.7,1.9,0.7c0.8,0,1.5-0.2,1.9-0.7c0.5-0.5,0.7-1.1,0.7-1.9V52.4l8.2-7.4l19,23.2
      c0.5,0.6,1,0.9,1.6,1c0.6,0.1,1.2-0.1,1.8-0.7c0.6-0.5,1-1.1,1-1.7c0-0.6-0.2-1.2-0.7-1.8L198.2,41.7z" fill="#fff"/>
    <path d="M293.1,23c-2.7-1.8-5.8-2.6-9.4-2.6c-3.5,0-6.7,0.8-9.5,2.5c-2.8,1.7-5,4-6.6,6.9c-1.5-2.9-3.5-5.1-6.1-6.8
      c-2.7-1.8-5.8-2.6-9.4-2.6c-3.3,0-6.3,0.8-9,2.5c-1.8,1.1-3.4,2.5-4.7,4.2v-3.4c0-0.8-0.2-1.5-0.7-1.9c-0.5-0.5-1.1-0.7-1.9-0.7
      c-0.8,0-1.4,0.2-1.9,0.7c-0.5,0.5-0.7,1.1-0.7,1.9v42.7c0,0.8,0.2,1.4,0.7,1.9c0.5,0.5,1.1,0.7,1.9,0.7c0.8,0,1.5-0.2,1.9-0.7
      c0.5-0.5,0.7-1.1,0.7-1.9V39.5c0-4.1,1.3-7.4,3.9-10c2.6-2.6,5.9-3.9,9.9-3.9c3.8,0,6.9,1.4,9.2,4.3c2.4,2.9,3.6,6.5,3.6,11v25.3
      c0,0.8,0.2,1.4,0.7,1.9c0.5,0.5,1.1,0.7,1.9,0.7c0.8,0,1.5-0.2,1.9-0.7c0.5-0.5,0.7-1.1,0.7-1.9V41c0-0.2,0-0.4,0-0.6h0
      c-0.1-4.5,1.1-8.1,3.6-10.7c2.5-2.7,5.8-4,9.9-4c3.8,0,6.9,1.4,9.2,4.3c2.4,2.9,3.5,6.5,3.5,11v25.3c0,0.8,0.2,1.4,0.7,1.9
      c0.5,0.5,1.1,0.7,1.9,0.7c0.8,0,1.5-0.2,1.9-0.7c0.5-0.5,0.7-1.1,0.7-1.9V41c0-4-0.8-7.6-2.3-10.7C297.9,27.2,295.8,24.8,293.1,23z
      " fill="#fff"/>
    <path d="M351.1,23.7c-3.7-2.1-7.9-3.2-12.5-3.2c-4.7,0-8.9,1.1-12.6,3.2c-3.7,2.1-6.6,5.1-8.8,8.8c-2.1,3.7-3.2,7.9-3.2,12.6
      c0,4.6,1.1,8.8,3.2,12.5c2.1,3.7,5.1,6.6,8.8,8.8c3.7,2.1,7.9,3.2,12.6,3.2c4.3,0,8.1-0.9,11.4-2.8c3.3-1.8,5.9-4.2,7.8-7.3v6.9
      c0,0.8,0.2,1.4,0.7,1.9c0.5,0.5,1.2,0.7,2,0.7c0.8,0,1.4-0.2,1.8-0.7c0.5-0.5,0.7-1.1,0.7-1.9V45c0-4.7-1.1-8.9-3.2-12.6
      C357.7,28.7,354.8,25.8,351.1,23.7z M348.4,62c-2.9,1.7-6.2,2.6-9.9,2.6c-3.6,0-6.9-0.9-9.8-2.6c-2.9-1.7-5.2-4.1-6.9-7
      c-1.7-2.9-2.5-6.3-2.5-9.9c0-3.7,0.8-7.1,2.5-10c1.7-2.9,4-5.3,6.9-7c2.9-1.7,6.2-2.6,9.8-2.6c3.7,0,7,0.9,9.9,2.6
      c2.9,1.7,5.2,4.1,6.8,7c1.7,3,2.5,6.3,2.5,10c0,3.7-0.8,7-2.5,9.9C353.6,57.9,351.3,60.3,348.4,62z" fill="#fff"/>
    <path d="M401.7,21.3c-1.2-0.5-3-0.8-5.2-0.8c-3.3,0-6.3,0.8-8.9,2.5c-2.5,1.5-4.5,3.5-6.1,6.1v-5.4c0-0.8-0.2-1.5-0.7-1.9
      c-0.5-0.5-1.1-0.7-1.9-0.7c-0.8,0-1.4,0.2-1.9,0.7c-0.5,0.5-0.7,1.1-0.7,1.9v42.7c0,0.8,0.2,1.4,0.7,1.9c0.5,0.5,1.1,0.7,1.9,0.7
      c0.8,0,1.5-0.2,1.9-0.7c0.5-0.5,0.7-1.1,0.7-1.9V39.7c0-2.7,0.6-5.2,1.9-7.3c1.3-2.1,3.1-3.8,5.3-5c2.3-1.2,4.9-1.8,7.8-1.8
      c1.1,0,2.1,0.1,3,0.2c0.9,0.1,1.7,0.1,2.3,0c0.6-0.2,1.1-0.7,1.2-1.6C403.4,22.7,402.9,21.8,401.7,21.3z" fill="#fff"/>
    <path d="M431.6,41.7l18.6-16.9c0.6-0.5,0.9-1,0.9-1.6c0-0.6-0.3-1.2-0.8-1.8c-0.5-0.6-1.1-0.9-1.6-0.9c-0.6,0-1.1,0.2-1.7,0.7
      L419.8,46V3.1c0-0.8-0.2-1.5-0.7-1.9c-0.5-0.5-1.1-0.7-1.9-0.7c-0.8,0-1.4,0.2-1.9,0.7c-0.5,0.5-0.7,1.1-0.7,1.9v63.2
      c0,0.8,0.2,1.4,0.7,1.9c0.5,0.5,1.1,0.7,1.9,0.7c0.8,0,1.5-0.2,1.9-0.7c0.5-0.5,0.7-1.1,0.7-1.9V52.4l8.2-7.4l19,23.2
      c0.5,0.6,1,0.9,1.6,1c0.6,0.1,1.2-0.1,1.8-0.7c0.6-0.5,1-1.1,1-1.7c0-0.6-0.2-1.2-0.7-1.8L431.6,41.7z" fill="#fff"/>
    <path d="M498.4,50.1c-1.1-1.8-2.9-3.5-5.4-4.9c-2.5-1.4-6-2.4-10.4-3c-3.2-0.5-5.8-1.1-7.7-1.9c-1.9-0.8-3.3-1.8-4.2-2.9
      c-0.8-1.1-1.3-2.5-1.3-4c0-2.2,1-4.1,3.1-5.7c2-1.6,4.9-2.4,8.6-2.4c2.7,0,5.2,0.5,7.2,1.4c2.1,1,3.8,2.4,5.3,4.2
      c0.5,0.6,1,0.9,1.7,1.1c0.6,0.1,1.3,0,1.8-0.3c0.8-0.4,1.2-0.9,1.4-1.6c0.1-0.7,0-1.3-0.5-1.9c-1.7-2.4-3.9-4.3-6.7-5.7
      c-2.7-1.4-6.1-2.1-10.1-2.1c-3.3,0-6.2,0.5-8.7,1.5c-2.5,1-4.5,2.5-6,4.6c-1.5,2-2.2,4.5-2.2,7.4c0,3.1,1.4,5.8,4.2,8.1
      c2.8,2.3,7.1,3.9,13,4.7c4.6,0.6,7.9,1.7,10.1,3.2c2.2,1.5,3.3,3.4,3.3,5.7c0,2.3-1,4.4-3.1,6.1c-2,1.8-5.5,2.6-10.4,2.6
      c-2.9,0-5.5-0.4-7.9-1.2c-2.4-0.8-4.5-2.2-6.2-4.2c-0.4-0.5-1-0.8-1.6-1c-0.7-0.1-1.3,0-1.9,0.4c-0.6,0.5-1,1-1.1,1.7
      c-0.1,0.7,0.1,1.3,0.6,1.9c2.2,2.6,5,4.5,8.3,5.6c3.3,1.1,6.5,1.7,9.6,1.7c3.3,0,6.4-0.5,9.3-1.6c2.9-1.1,5.2-2.6,6.9-4.7
      c1.8-2,2.6-4.4,2.6-7.2C500,53.9,499.5,51.9,498.4,50.1z" fill="#fff"/>
  </g>
</svg>
